<?xml version="1.0" standalone="no"?>
<!DOCTYPE svg PUBLIC "-//W3C//DTD SVG 20010904//EN"
 "http://www.w3.org/TR/2001/REC-SVG-20010904/DTD/svg10.dtd">
<svg version="1.0" xmlns="http://www.w3.org/2000/svg"
 width="400.000000pt" height="400.000000pt" viewBox="0 0 400.000000 400.000000"
 preserveAspectRatio="xMidYMid meet">
<metadata>
Created by potrace 1.14, written by Peter Selinger 2001-2017
</metadata>
<g transform="translate(0.000000,400.000000) scale(0.100000,-0.100000)"
fill="#000000" stroke="none">
<path d="M1009 3606 c-56 -20 -97 -54 -120 -97 -19 -39 -20 -54 -17 -1112 l3
-1072 27 -98 c110 -399 415 -705 813 -814 92 -25 114 -27 285 -27 169 0 193 2
285 27 497 135 845 586 845 1097 0 422 -238 811 -615 1007 -354 183 -808 158
-1134 -61 -29 -20 -55 -36 -57 -36 -2 0 -5 242 -6 538 l-3 539 -29 37 c-56 74
-182 106 -277 72z m1235 -1400 c112 -40 185 -84 269 -165 237 -226 296 -594
140 -881 -102 -188 -271 -318 -483 -371 -71 -18 -103 -21 -200 -16 -207 9
-347 71 -495 221 -76 77 -98 106 -137 186 -143 292 -88 622 141 851 155 155
334 223 561 215 89 -4 120 -10 204 -40z"/>
</g>
</svg>
